<?xml version="1.0" ?><svg height="64px" style="enable-background:new 0 0 64 64;" version="1.1" viewBox="0 0 64 64" width="64px" xml:space="preserve" xmlns="http://www.w3.org/2000/svg" xmlns:xlink="http://www.w3.org/1999/xlink"><style type="text/css">
	.st0{display:none;}
	.st1{display:inline;}
	.st2{fill:#F79765;}
	.st3{fill:none;stroke:#4E4C50;stroke-width:2;stroke-linejoin:round;stroke-miterlimit:10;}
	.st4{fill:#F48B91;}
	.st5{fill:#8F8A8F;}
	.st6{fill:#FCD0B8;}
	.st7{fill:#FFFEF9;}
	.st8{fill:#4E4C50;}
	.st9{fill:#FFF1AD;}
	.st10{fill:#618FB4;}
	.st11{fill:#79A0C1;}
	.st12{fill:#29739D;}
	.st13{fill:#BB5A45;}
	.st14{fill:#F58870;}
	.st15{fill:#909AA7;}
	.st16{fill:#F79E88;}
	.st17{fill:#E4E5E6;}
	.st18{fill:#C7E8E8;}
	.st19{fill:#84D0D3;}
	.st20{fill:#F8F8F9;}
	.st21{fill:#B9E5FB;}
	.st22{fill:#F99F38;}
	.st23{fill:#FBB568;}
	.st24{fill:#F69679;}
	.st25{fill:#758393;}
	.st26{fill:#8892A1;}
	.st27{fill:#586775;}
	.st28{fill:#D1D3D4;}
	.st29{fill:#4EBDE5;}
	.st30{fill:none;stroke:#FFFEF9;stroke-width:2;stroke-miterlimit:10;}
	.st31{fill:#FFE5C7;}
	.st32{fill:none;stroke:#F58870;stroke-width:2;stroke-miterlimit:10;}
	.st33{fill:#CF9765;}
	.st34{fill:none;stroke:#758393;stroke-width:2;stroke-linecap:round;stroke-linejoin:round;stroke-miterlimit:10;}
	.st35{fill:#B8E1DA;}
	.st36{fill:none;stroke:#AFB5BF;stroke-width:2;stroke-miterlimit:10;}
	.st37{fill:#DB826C;}
	.st38{fill:#D5BF4D;}
	.st39{display:none;opacity:0.19;}
	.st40{display:inline;fill:#EC2027;}
	.st41{display:inline;fill:#4E4C50;}
</style><g class="st0" id="guide"/><g id="Layer_3"/><g id="Layer_2"><g><path class="st6" d="M48.41418,46.41418l-2.82837-2.82843C45.21069,43.21069,44.70203,43,44.17157,43H37v-4H27v4h-7.17157    c-0.53046,0-1.03912,0.21069-1.41425,0.58575l-2.82837,2.82843C15.21069,46.78925,15,47.29797,15,47.82843V62h34V47.82843    C49,47.29797,48.78931,46.78925,48.41418,46.41418z"/><path class="st3" d="M48.41418,46.41418l-2.82837-2.82843C45.21069,43.21069,44.70203,43,44.17157,43H37v-4H27v4h-7.17157    c-0.53046,0-1.03912,0.21069-1.41425,0.58575l-2.82837,2.82843C15.21069,46.78925,15,47.29797,15,47.82843V62h34V47.82843    C49,47.29797,48.78931,46.78925,48.41418,46.41418z"/><path class="st25" d="M48.41418,46.41418l-2.82837-2.82843C45.21069,43.21069,44.70203,43,44.17157,43H37H27h-7.17157    c-0.53046,0-1.03912,0.21069-1.41425,0.58575l-2.82837,2.82843C15.21069,46.78925,15,47.29797,15,47.82843V62h34V47.82843    C49,47.29797,48.78931,46.78925,48.41418,46.41418z"/><path class="st3" d="M48.41418,46.41418l-2.82837-2.82843C45.21069,43.21069,44.70203,43,44.17157,43H37H27h-7.17157    c-0.53046,0-1.03912,0.21069-1.41425,0.58575l-2.82837,2.82843C15.21069,46.78925,15,47.29797,15,47.82843V62h34V47.82843    C49,47.29797,48.78931,46.78925,48.41418,46.41418z"/><polygon class="st6" points="21,20 21,35 25,39 39,39 43,35 43,20   "/><polygon class="st3" points="21,20 21,35 25,39 39,39 43,35 43,20   "/><g><g><polygon class="st25" points="35,2 30.04169,9.58331 49,12.91663     "/><polygon class="st3" points="35,2 30.04169,9.58331 49,12.91663     "/></g><polygon class="st25" points="46,21 35,2 29,2 18,21 13,26 51,26    "/><polygon class="st3" points="46,21 35,2 29,2 18,21 13,26 51,26    "/></g><g><g><polygon class="st17" points="32,53 27,47 25,49 21,39 18,41 18,26 21,26 21,31.75 26,34 30,31 34,31 38,34 43,31.75 43,26       46,26 46,41 43,39 39,49 37,47     "/></g><g><polygon class="st3" points="32,53 27,47 25,49 21,39 18,41 18,26 21,26 21,31.75 26,34 30,31 34,31 38,34 43,31.75 43,26       46,26 46,41 43,39 39,49 37,47     "/></g></g><g><circle class="st8" cx="37.25" cy="26.5" r="1.5"/><circle class="st8" cx="26.75" cy="26.5" r="1.5"/></g></g></g><g class="st39" id="sketch"><path class="st41" d="M42.8512,31.42365c-0.94141,0.08478-1.80829,0.62323-2.66309,1.00647   c-0.78674,0.35272-1.74585,0.6557-2.42584,1.21991c-0.3515-0.40033-0.75726-0.77734-1.04895-1.11859   c-0.46832-0.54785-0.96124-1.3158-1.60754-1.71497c-0.00403-0.2254-0.14929-0.44897-0.43903-0.45013   c-1.73798-0.00696-3.51758-0.12134-5.24963,0.02979c-0.08588,0.00751-0.15112,0.03845-0.20697,0.07727   c-0.07941,0.00415-0.16113,0.03021-0.23529,0.0899c-1.00781,0.81134-1.84814,1.95496-3.04846,2.51807   c-1.40442,0.65894-3.08588-0.53516-4.32074-1.20734c-0.65179-0.35474-1.23505,0.64288-0.5816,0.99506   c1.27771,0.6886,3.40497,2.05817,4.87317,1.45209c1.33087-0.54938,2.83588-1.88556,3.56268-3.15637   c1.63983,0.16608,3.32379,0.10089,4.97449,0.11328c0.21802,0.58624,0.69647,1.078,1.09106,1.55743   c0.58636,0.71246,1.44708,1.46344,1.87317,2.28137c0.29126,0.5592,1.22015,0.17462,1.02399-0.4317   c-0.03015-0.09326-0.07104-0.18567-0.11798-0.2774c0.72382-0.15625,1.43542-0.55133,2.09125-0.83575   c0.91754-0.39789,2.03162-0.69971,2.77368-1.37988C43.44312,31.94141,43.24188,31.38849,42.8512,31.42365z"/><g class="st1"><path class="st8" d="M46.47898,26.66089c-1.00171,3.56976-1.13055,7.86334-0.88287,11.5589    c-0.09686-0.00177-0.19861,0.01764-0.3053,0.09277c-0.81659,0.57538-1.62604,1.16296-2.45245,1.72424    c-0.28925,0.19641-0.33514,0.47418-0.24847,0.70502c-0.52332,0.86212-0.87726,1.8623-1.30347,2.76605    c-0.42511,0.90131-0.81226,2.12158-1.42249,2.96631c-0.54095-0.41888-1.06555-1.48401-1.54877-1.80908    c-0.23889-0.16071-0.66174-0.06403-0.78479,0.20581c-0.00946,0.02075-0.01898,0.04156-0.02844,0.06238    c-0.03778,0.08282-0.0575,0.16248-0.06769,0.2406c-1.00818,0.69269-1.80182,1.80035-2.61499,2.69794    c-0.97754,1.07904-1.98956,2.1391-2.9068,3.26984c-0.44086,0.54352,0.27356,1.30762,0.78583,0.78583    c1.01965-1.03839,1.95844-2.16431,2.91956-3.25702c0.73456-0.83508,1.64508-1.67377,2.24176-2.63702    c0.72186,0.94434,1.93414,2.60468,2.88409,1.33777c0.67529-0.90057,1.0929-2.23883,1.55591-3.27112    c0.43738-0.97522,0.97693-2.01422,1.21991-3.07239c0.02002-0.013,0.03973-0.01526,0.05969-0.03076    c0.75037-0.58228,1.52112-1.14032,2.28137-1.70966c0.14948-0.11194,0.21936-0.26123,0.23523-0.41315    c0.22711-0.00183,0.4505-0.15295,0.46442-0.4588c0.17627-3.8631,0.61548-7.79889,0.66498-11.6535    C47.23075,26.33148,46.5947,26.24872,46.47898,26.66089z"/><path class="st8" d="M17.52102,26.66089c1.00171,3.56976,1.13055,7.86334,0.88287,11.5589    c0.09686-0.00177,0.19861,0.01764,0.3053,0.09277c0.81659,0.57538,1.62604,1.16296,2.45245,1.72424    c0.28925,0.19641,0.33514,0.47418,0.24847,0.70502c0.52332,0.86212,0.87726,1.8623,1.30347,2.76605    c0.42511,0.90131,0.81226,2.12158,1.42249,2.96631c0.54095-0.41888,1.06555-1.48401,1.54877-1.80908    c0.23889-0.16071,0.66174-0.06403,0.78479,0.20581c0.00946,0.02075,0.01898,0.04156,0.02844,0.06238    c0.03778,0.08282,0.0575,0.16248,0.06769,0.2406c1.00818,0.69269,1.80182,1.80035,2.61499,2.69794    c0.97754,1.07904,1.98956,2.1391,2.9068,3.26984c0.44086,0.54352-0.27356,1.30762-0.78583,0.78583    c-1.01965-1.03839-1.95844-2.16431-2.91956-3.25702c-0.73456-0.83508-1.64508-1.67377-2.24176-2.63702    c-0.72186,0.94434-1.93414,2.60468-2.88409,1.33777c-0.67529-0.90057-1.0929-2.23883-1.55591-3.27112    c-0.43738-0.97522-0.97693-2.01422-1.21991-3.07239c-0.02002-0.013-0.03973-0.01526-0.05969-0.03076    c-0.75037-0.58228-1.52112-1.14032-2.28137-1.70966c-0.14948-0.11194-0.21936-0.26123-0.23523-0.41315    c-0.22711-0.00183-0.4505-0.15295-0.46442-0.4588c-0.17627-3.8631-0.61548-7.79889-0.66498-11.6535    C16.76925,26.33148,17.4053,26.24872,17.52102,26.66089z"/></g></g></svg>